<?xml version="1.0" encoding="UTF-8" standalone="no"?>
<!DOCTYPE svg PUBLIC "-//W3C//DTD SVG 1.1//EN"
 "http://www.w3.org/Graphics/SVG/1.1/DTD/svg11.dtd">
<!-- Generated by graphviz version 2.43.0 (0)
 -->
<!-- Title: finite_state_machine Pages: 1 -->
<svg width="576pt" height="199pt"
 viewBox="0.00 0.00 576.00 198.85" xmlns="http://www.w3.org/2000/svg" xmlns:xlink="http://www.w3.org/1999/xlink">
<g id="graph0" class="graph" transform="scale(2.84 2.84) rotate(0) translate(4 561.31)">
<title>finite_state_machine</title>
<polygon fill="white" stroke="transparent" points="-4,4 -4,-561.31 1633.5,-561.31 1633.5,4 -4,4"/>
<!-- 0 -->
<g id="node1" class="node">
<title>0</title>
<ellipse fill="none" stroke="black" cx="18" cy="-432.31" rx="18" ry="18"/>
<text text-anchor="middle" x="18" y="-428.61" font-family="Times,serif" font-size="14.00">0</text>
</g>
<!-- 3 -->
<g id="node4" class="node">
<title>3</title>
<ellipse fill="none" stroke="black" cx="140" cy="-309.31" rx="18" ry="18"/>
<text text-anchor="middle" x="140" y="-305.61" font-family="Times,serif" font-size="14.00">3</text>
</g>
<!-- 0&#45;&gt;3 -->
<g id="edge15" class="edge">
<title>0&#45;&gt;3</title>
<path fill="none" stroke="black" d="M31.39,-419.61C52.34,-398.14 94.89,-354.52 119.75,-329.04"/>
<polygon fill="black" stroke="black" points="122.38,-331.36 126.86,-321.76 117.37,-326.47 122.38,-331.36"/>
<text text-anchor="middle" x="79" y="-399.11" font-family="Times,serif" font-size="14.00">16./16.</text>
</g>
<!-- 4 -->
<g id="node5" class="node">
<title>4</title>
<ellipse fill="none" stroke="black" cx="1606.75" cy="-326.31" rx="18" ry="18"/>
<text text-anchor="middle" x="1606.75" y="-322.61" font-family="Times,serif" font-size="14.00">4</text>
</g>
<!-- 0&#45;&gt;4 -->
<g id="edge16" class="edge">
<title>0&#45;&gt;4</title>
<path fill="none" stroke="black" d="M26.81,-448.07C43.11,-478.49 83.89,-542.31 139,-542.31 139,-542.31 139,-542.31 1273,-542.31 1404.49,-542.31 1469.19,-590.29 1566,-501.31 1587.3,-481.74 1598.61,-398.49 1603.22,-354.23"/>
<polygon fill="black" stroke="black" points="1606.72,-354.44 1604.22,-344.14 1599.75,-353.74 1606.72,-354.44"/>
<text text-anchor="middle" x="661.5" y="-546.11" font-family="Times,serif" font-size="14.00">16./16.</text>
</g>
<!-- 1 -->
<g id="node2" class="node">
<title>1</title>
<ellipse fill="none" stroke="black" cx="461" cy="-271.31" rx="18" ry="18"/>
<text text-anchor="middle" x="461" y="-267.61" font-family="Times,serif" font-size="14.00">1</text>
</g>
<!-- 2 -->
<g id="node3" class="node">
<title>2</title>
<ellipse fill="none" stroke="black" cx="866.5" cy="-132.31" rx="18" ry="18"/>
<text text-anchor="middle" x="866.5" y="-128.61" font-family="Times,serif" font-size="14.00">2</text>
</g>
<!-- 1&#45;&gt;2 -->
<g id="edge8" class="edge">
<title>1&#45;&gt;2</title>
<path fill="none" stroke="black" d="M477.39,-263.77C497.65,-254.17 534.63,-237.83 568,-229.31 649.14,-208.61 676.52,-235.51 755,-206.31 789.58,-193.45 824.04,-167.81 845.06,-150.36"/>
<polygon fill="black" stroke="black" points="847.32,-153.03 852.69,-143.89 842.8,-147.69 847.32,-153.03"/>
<text text-anchor="middle" x="661.5" y="-233.11" font-family="Times,serif" font-size="14.00">0./1.79769313486e+308</text>
</g>
<!-- 1&#45;&gt;3 -->
<g id="edge7" class="edge">
<title>1&#45;&gt;3</title>
<path fill="none" stroke="black" d="M443.61,-266.5C398.41,-254.19 269.14,-225.36 176,-268.31 167.99,-272 161.14,-278.53 155.67,-285.31"/>
<polygon fill="black" stroke="black" points="152.53,-283.68 149.51,-293.83 158.21,-287.78 152.53,-283.68"/>
<text text-anchor="middle" x="265" y="-272.11" font-family="Times,serif" font-size="14.00">0./1.79769313486e+308</text>
</g>
<!-- 1&#45;&gt;4 -->
<g id="edge6" class="edge">
<title>1&#45;&gt;4</title>
<path fill="none" stroke="black" d="M474.79,-283.19C493.55,-299.71 530.39,-328.9 568,-340.31 821.91,-417.36 899.66,-346.97 1165,-345.31 1343.23,-344.2 1390.5,-371.44 1566,-340.31 1570.66,-339.48 1575.51,-338.18 1580.15,-336.69"/>
<polygon fill="black" stroke="black" points="1581.57,-339.9 1589.83,-333.26 1579.23,-333.31 1581.57,-339.9"/>
<text text-anchor="middle" x="1071.5" y="-361.11" font-family="Times,serif" font-size="14.00">0./1.79769313486e+308</text>
</g>
<!-- 5 -->
<g id="node6" class="node">
<title>5</title>
<ellipse fill="none" stroke="black" cx="1272" cy="-258.31" rx="18" ry="18"/>
<text text-anchor="middle" x="1272" y="-254.61" font-family="Times,serif" font-size="14.00">5</text>
</g>
<!-- 1&#45;&gt;5 -->
<g id="edge5" class="edge">
<title>1&#45;&gt;5</title>
<path fill="none" stroke="black" d="M479.15,-271.9C557.77,-274.45 891.69,-283.84 1165,-269.31 1191.87,-267.88 1222.42,-264.53 1243.8,-261.9"/>
<polygon fill="black" stroke="black" points="1244.3,-265.36 1253.78,-260.64 1243.42,-258.41 1244.3,-265.36"/>
<text text-anchor="middle" x="866.5" y="-280.11" font-family="Times,serif" font-size="14.00">0./1.79769313486e+308</text>
</g>
<!-- 99 -->
<g id="node7" class="node">
<title>99</title>
<ellipse fill="none" stroke="black" cx="1606.75" cy="-56.31" rx="23" ry="23"/>
<text text-anchor="middle" x="1606.75" y="-52.61" font-family="Times,serif" font-size="14.00">99</text>
</g>
<!-- 1&#45;&gt;99 -->
<g id="edge9" class="edge">
<title>1&#45;&gt;99</title>
<path fill="none" stroke="black" d="M469.63,-255.22C484.31,-226.11 519.39,-164.91 568,-134.31 908.16,79.83 1440.84,-19.32 1574.52,-48.96"/>
<polygon fill="black" stroke="black" points="1573.97,-52.42 1584.49,-51.2 1575.5,-45.59 1573.97,-52.42"/>
<text text-anchor="middle" x="1071.5" y="-11.11" font-family="Times,serif" font-size="14.00">24./24.</text>
</g>
<!-- 2&#45;&gt;1 -->
<g id="edge13" class="edge">
<title>2&#45;&gt;1</title>
<path fill="none" stroke="black" d="M849.32,-138.79C828.05,-147.03 789.35,-161.06 755,-168.31 673.26,-185.57 645.4,-155.88 568,-187.31 533.04,-201.5 500.21,-230.97 480.61,-250.95"/>
<polygon fill="black" stroke="black" points="477.91,-248.7 473.53,-258.34 482.97,-253.54 477.91,-248.7"/>
<text text-anchor="middle" x="661.5" y="-191.11" font-family="Times,serif" font-size="14.00">24./1.79769313486e+308</text>
</g>
<!-- 2&#45;&gt;3 -->
<g id="edge12" class="edge">
<title>2&#45;&gt;3</title>
<path fill="none" stroke="black" d="M848.49,-129.62C752.5,-114.83 279.15,-47.36 176,-138.31 155.05,-156.79 146.12,-237.35 142.77,-280.98"/>
<polygon fill="black" stroke="black" points="139.26,-281 142.03,-291.22 146.24,-281.5 139.26,-281"/>
<text text-anchor="middle" x="461" y="-100.11" font-family="Times,serif" font-size="14.00">0./1.79769313486e+308</text>
</g>
<!-- 2&#45;&gt;4 -->
<g id="edge11" class="edge">
<title>2&#45;&gt;4</title>
<path fill="none" stroke="black" d="M884.62,-132.24C981.26,-132.15 1458.01,-136.33 1566,-226.31 1587.56,-244.28 1597.5,-275.59 1602.04,-298.4"/>
<polygon fill="black" stroke="black" points="1598.64,-299.26 1603.81,-308.51 1605.53,-298.06 1598.64,-299.26"/>
<text text-anchor="middle" x="1272" y="-164.11" font-family="Times,serif" font-size="14.00">0./1.79769313486e+308</text>
</g>
<!-- 2&#45;&gt;5 -->
<g id="edge10" class="edge">
<title>2&#45;&gt;5</title>
<path fill="none" stroke="black" d="M884.1,-137.35C903.06,-143.43 934.72,-154.56 960,-168.31 968.67,-173.03 968.81,-177.71 978,-181.31 1055.95,-211.9 1084.92,-179.82 1165,-204.31 1195.14,-213.53 1227.02,-230.95 1247.85,-243.52"/>
<polygon fill="black" stroke="black" points="1246.25,-246.64 1256.6,-248.9 1249.92,-240.68 1246.25,-246.64"/>
<text text-anchor="middle" x="1071.5" y="-208.11" font-family="Times,serif" font-size="14.00">0./1.79769313486e+308</text>
</g>
<!-- 2&#45;&gt;99 -->
<g id="edge14" class="edge">
<title>2&#45;&gt;99</title>
<path fill="none" stroke="black" d="M883.27,-125.46C904.4,-116.57 943.3,-101.27 978,-93.31 1201.39,-42.06 1480.56,-49.99 1573.79,-54.5"/>
<polygon fill="black" stroke="black" points="1573.81,-58 1583.97,-55.01 1574.16,-51.01 1573.81,-58"/>
<text text-anchor="middle" x="1272" y="-66.11" font-family="Times,serif" font-size="14.00">4./4.</text>
</g>
<!-- 3&#45;&gt;1 -->
<g id="edge1" class="edge">
<title>3&#45;&gt;1</title>
<path fill="none" stroke="black" d="M158.15,-307.82C194.38,-304.59 281.35,-296.54 354,-287.31 381.01,-283.88 411.76,-279.15 433.16,-275.72"/>
<polygon fill="black" stroke="black" points="433.83,-279.16 443.14,-274.11 432.71,-272.25 433.83,-279.16"/>
<text text-anchor="middle" x="265" y="-309.11" font-family="Times,serif" font-size="14.00">0./1.79769313486e+308</text>
</g>
<!-- 3&#45;&gt;2 -->
<g id="edge2" class="edge">
<title>3&#45;&gt;2</title>
<path fill="none" stroke="black" d="M141.28,-291.08C142.39,-244.35 147.97,-122.1 176,-95.31 367.45,87.66 741.93,-72.71 840.98,-120.11"/>
<polygon fill="black" stroke="black" points="839.67,-123.36 850.2,-124.57 842.72,-117.06 839.67,-123.36"/>
<text text-anchor="middle" x="461" y="-26.11" font-family="Times,serif" font-size="14.00">0./1.79769313486e+308</text>
</g>
<!-- 3&#45;&gt;4 -->
<g id="edge4" class="edge">
<title>3&#45;&gt;4</title>
<path fill="none" stroke="black" d="M142.58,-327.35C146.17,-363.8 156.19,-444.3 176,-462.31 270.19,-547.93 332.71,-499.31 460,-499.31 460,-499.31 460,-499.31 1273,-499.31 1404.26,-499.31 1466.12,-547.47 1566,-462.31 1597.14,-435.76 1604.6,-386.27 1606,-354.88"/>
<polygon fill="black" stroke="black" points="1609.5,-354.69 1606.27,-344.6 1602.5,-354.5 1609.5,-354.69"/>
<text text-anchor="middle" x="866.5" y="-503.11" font-family="Times,serif" font-size="14.00">16./1.79769313486e+308</text>
</g>
<!-- 3&#45;&gt;5 -->
<g id="edge3" class="edge">
<title>3&#45;&gt;5</title>
<path fill="none" stroke="black" d="M156.27,-317.29C162.26,-320.03 169.29,-322.79 176,-324.31 523.72,-403.11 621.47,-341.44 978,-342.31 1061.11,-342.51 1086.51,-369.64 1165,-342.31 1200.63,-329.91 1233.29,-299.98 1252.67,-279.42"/>
<polygon fill="black" stroke="black" points="1255.49,-281.53 1259.67,-271.79 1250.33,-276.8 1255.49,-281.53"/>
<text text-anchor="middle" x="661.5" y="-366.11" font-family="Times,serif" font-size="14.00">0./1.79769313486e+308</text>
</g>
<!-- 4&#45;&gt;1 -->
<g id="edge17" class="edge">
<title>4&#45;&gt;1</title>
<path fill="none" stroke="black" d="M1588.57,-326.55C1489.45,-327.75 980.49,-331.5 568,-289.31 540.84,-286.53 510.1,-281.05 488.75,-276.87"/>
<polygon fill="black" stroke="black" points="489.29,-273.4 478.8,-274.87 487.91,-280.27 489.29,-273.4"/>
<text text-anchor="middle" x="1071.5" y="-327.11" font-family="Times,serif" font-size="14.00">0./1.79769313486e+308</text>
</g>
<!-- 4&#45;&gt;2 -->
<g id="edge18" class="edge">
<title>4&#45;&gt;2</title>
<path fill="none" stroke="black" d="M1605.07,-308.29C1602.95,-262.76 1594.74,-145.01 1566,-121.31 1513.55,-78.05 1017.08,-119.01 894.68,-129.85"/>
<polygon fill="black" stroke="black" points="894.29,-126.37 884.64,-130.74 894.91,-133.34 894.29,-126.37"/>
<text text-anchor="middle" x="1272" y="-113.11" font-family="Times,serif" font-size="14.00">0./1.79769313486e+308</text>
</g>
<!-- 4&#45;&gt;3 -->
<g id="edge19" class="edge">
<title>4&#45;&gt;3</title>
<path fill="none" stroke="black" d="M1593.94,-339.2C1586.55,-346.59 1576.46,-355.53 1566,-361.31 1447.13,-427.07 1408.84,-448.31 1273,-448.31 460,-448.31 460,-448.31 460,-448.31 326.9,-448.31 285.03,-429.65 176,-353.31 168.3,-347.92 161.44,-340.36 155.88,-333.02"/>
<polygon fill="black" stroke="black" points="158.6,-330.81 149.97,-324.65 152.88,-334.84 158.6,-330.81"/>
<text text-anchor="middle" x="866.5" y="-452.11" font-family="Times,serif" font-size="14.00">0./1.79769313486e+308</text>
</g>
<!-- 4&#45;&gt;5 -->
<g id="edge20" class="edge">
<title>4&#45;&gt;5</title>
<path fill="none" stroke="black" d="M1600.89,-309.04C1595.34,-292.95 1584.55,-269.92 1566,-259.31 1479.27,-209.72 1353.16,-235.64 1299.14,-250.39"/>
<polygon fill="black" stroke="black" points="1298,-247.07 1289.33,-253.16 1299.91,-253.81 1298,-247.07"/>
<text text-anchor="middle" x="1472.5" y="-263.11" font-family="Times,serif" font-size="14.00">32./1.79769313486e+308</text>
</g>
<!-- 5&#45;&gt;1 -->
<g id="edge21" class="edge">
<title>5&#45;&gt;1</title>
<path fill="none" stroke="black" d="M1253.79,-257.89C1190.07,-256.41 961.43,-251.77 773,-256.31 668.09,-258.84 543.46,-266.16 489.34,-269.55"/>
<polygon fill="black" stroke="black" points="488.94,-266.07 479.18,-270.19 489.38,-273.05 488.94,-266.07"/>
<text text-anchor="middle" x="866.5" y="-260.11" font-family="Times,serif" font-size="14.00">0./1.79769313486e+308</text>
</g>
<!-- 5&#45;&gt;2 -->
<g id="edge24" class="edge">
<title>5&#45;&gt;2</title>
<path fill="none" stroke="black" d="M1257.31,-247.75C1239.5,-233.76 1207.73,-207.97 1183,-183.31 1174.3,-174.63 1175.9,-168 1165,-162.31 1164.25,-161.92 968.64,-142.39 895.06,-135.06"/>
<polygon fill="black" stroke="black" points="895.03,-131.54 884.73,-134.03 894.33,-138.5 895.03,-131.54"/>
<text text-anchor="middle" x="1071.5" y="-166.11" font-family="Times,serif" font-size="14.00">28./1.79769313486e+308</text>
</g>
<!-- 5&#45;&gt;3 -->
<g id="edge22" class="edge">
<title>5&#45;&gt;3</title>
<path fill="none" stroke="black" d="M1254,-256.96C1208.74,-253.17 1081.67,-241.25 978,-219.31 885.12,-199.66 860.59,-195.92 773,-159.31 764.56,-155.78 763.86,-151.61 755,-149.31 674.55,-128.46 650.56,-139.75 568,-149.31 390.23,-169.89 317.05,-131.17 176,-241.31 162.86,-251.57 154.19,-268.12 148.77,-282.32"/>
<polygon fill="black" stroke="black" points="145.34,-281.53 145.38,-292.13 151.95,-283.82 145.34,-281.53"/>
<text text-anchor="middle" x="661.5" y="-153.11" font-family="Times,serif" font-size="14.00">0./1.79769313486e+308</text>
</g>
<!-- 5&#45;&gt;4 -->
<g id="edge23" class="edge">
<title>5&#45;&gt;4</title>
<path fill="none" stroke="black" d="M1289.87,-261C1310.77,-264.31 1347.47,-269.99 1379,-274.31 1461.96,-285.67 1488.12,-266.54 1566,-297.31 1572.46,-299.87 1578.84,-303.73 1584.52,-307.81"/>
<polygon fill="black" stroke="black" points="1582.76,-310.87 1592.8,-314.24 1587.05,-305.34 1582.76,-310.87"/>
<text text-anchor="middle" x="1472.5" y="-301.11" font-family="Times,serif" font-size="14.00">0./1.79769313486e+308</text>
</g>
<!-- 5&#45;&gt;99 -->
<g id="edge25" class="edge">
<title>5&#45;&gt;99</title>
<path fill="none" stroke="black" d="M1287.73,-249.37C1339.02,-218.23 1510.37,-114.21 1577.98,-73.17"/>
<polygon fill="black" stroke="black" points="1580.07,-75.99 1586.8,-67.81 1576.44,-70.01 1580.07,-75.99"/>
<text text-anchor="middle" x="1472.5" y="-197.11" font-family="Times,serif" font-size="14.00">4./4.</text>
</g>
</g>
</svg>
