<?xml version="1.0" encoding="UTF-8" standalone="no"?>
<!DOCTYPE svg PUBLIC "-//W3C//DTD SVG 1.1//EN"
 "http://www.w3.org/Graphics/SVG/1.1/DTD/svg11.dtd">
<!-- Generated by graphviz version 2.43.0 (0)
 -->
<!-- Title: finite_state_machine Pages: 1 -->
<svg width="573pt" height="158pt"
 viewBox="0.00 0.00 573.00 158.00" xmlns="http://www.w3.org/2000/svg" xmlns:xlink="http://www.w3.org/1999/xlink">
<g id="graph0" class="graph" transform="scale(1 1) rotate(0) translate(4 154)">
<title>finite_state_machine</title>
<polygon fill="white" stroke="transparent" points="-4,4 -4,-154 569,-154 569,4 -4,4"/>
<!-- 0 -->
<g id="node1" class="node">
<title>0</title>
<ellipse fill="none" stroke="black" cx="18" cy="-131" rx="18" ry="18"/>
<text text-anchor="middle" x="18" y="-127.3" font-family="Times,serif" font-size="14.00">0</text>
</g>
<!-- 1 -->
<g id="node2" class="node">
<title>1</title>
<ellipse fill="none" stroke="black" cx="131" cy="-108" rx="18" ry="18"/>
<text text-anchor="middle" x="131" y="-104.3" font-family="Times,serif" font-size="14.00">1</text>
</g>
<!-- 0&#45;&gt;1 -->
<g id="edge6" class="edge">
<title>0&#45;&gt;1</title>
<path fill="none" stroke="black" d="M35.86,-127.51C53.71,-123.81 82.14,-117.92 103.09,-113.58"/>
<polygon fill="black" stroke="black" points="103.9,-116.98 112.98,-111.53 102.48,-110.13 103.9,-116.98"/>
<text text-anchor="middle" x="74.5" y="-126.8" font-family="Times,serif" font-size="14.00">10/16</text>
</g>
<!-- 2 -->
<g id="node3" class="node">
<title>2</title>
<ellipse fill="none" stroke="black" cx="339" cy="-105" rx="18" ry="18"/>
<text text-anchor="middle" x="339" y="-101.3" font-family="Times,serif" font-size="14.00">2</text>
</g>
<!-- 0&#45;&gt;2 -->
<g id="edge5" class="edge">
<title>0&#45;&gt;2</title>
<path fill="none" stroke="black" d="M35.57,-136.17C41.34,-137.73 47.9,-139.23 54,-140 72.08,-142.29 76.8,-140.82 95,-140 169.45,-136.66 187.99,-133.73 262,-125 280.29,-122.84 285.22,-123.79 303,-119 306.22,-118.13 309.55,-117.06 312.81,-115.89"/>
<polygon fill="black" stroke="black" points="314.19,-119.11 322.24,-112.22 311.65,-112.58 314.19,-119.11"/>
<text text-anchor="middle" x="187.5" y="-138.8" font-family="Times,serif" font-size="14.00">13/13</text>
</g>
<!-- 3 -->
<g id="node4" class="node">
<title>3</title>
<ellipse fill="none" stroke="black" cx="244" cy="-53" rx="18" ry="18"/>
<text text-anchor="middle" x="244" y="-49.3" font-family="Times,serif" font-size="14.00">3</text>
</g>
<!-- 1&#45;&gt;3 -->
<g id="edge7" class="edge">
<title>1&#45;&gt;3</title>
<path fill="none" stroke="black" d="M145.38,-96.71C151.67,-91.76 159.43,-86.15 167,-82 182.79,-73.34 201.72,-66.11 216.73,-61.03"/>
<polygon fill="black" stroke="black" points="217.99,-64.3 226.41,-57.87 215.82,-57.65 217.99,-64.3"/>
<text text-anchor="middle" x="187.5" y="-85.8" font-family="Times,serif" font-size="14.00">12/12</text>
</g>
<!-- 2&#45;&gt;1 -->
<g id="edge4" class="edge">
<title>2&#45;&gt;1</title>
<path fill="none" stroke="black" d="M320.98,-105.25C285.32,-105.77 202.46,-106.97 159.28,-107.6"/>
<polygon fill="black" stroke="black" points="159.16,-104.1 149.21,-107.75 159.26,-111.1 159.16,-104.1"/>
<text text-anchor="middle" x="244" y="-109.8" font-family="Times,serif" font-size="14.00">2/4</text>
</g>
<!-- 4 -->
<g id="node5" class="node">
<title>4</title>
<ellipse fill="none" stroke="black" cx="452" cy="-48" rx="18" ry="18"/>
<text text-anchor="middle" x="452" y="-44.3" font-family="Times,serif" font-size="14.00">4</text>
</g>
<!-- 2&#45;&gt;4 -->
<g id="edge3" class="edge">
<title>2&#45;&gt;4</title>
<path fill="none" stroke="black" d="M355.43,-97.07C373.91,-87.59 405.06,-71.59 426.76,-60.45"/>
<polygon fill="black" stroke="black" points="428.4,-63.54 435.7,-55.86 425.2,-57.31 428.4,-63.54"/>
<text text-anchor="middle" x="395.5" y="-89.8" font-family="Times,serif" font-size="14.00">11/14</text>
</g>
<!-- 3&#45;&gt;2 -->
<g id="edge8" class="edge">
<title>3&#45;&gt;2</title>
<path fill="none" stroke="black" d="M260.52,-60.15C272.36,-65.75 288.95,-73.91 303,-82 307.01,-84.31 311.18,-86.89 315.2,-89.46"/>
<polygon fill="black" stroke="black" points="313.32,-92.42 323.6,-94.99 317.16,-86.57 313.32,-92.42"/>
<text text-anchor="middle" x="291.5" y="-85.8" font-family="Times,serif" font-size="14.00">0/9</text>
</g>
<!-- 5 -->
<g id="node6" class="node">
<title>5</title>
<ellipse fill="none" stroke="black" cx="547" cy="-18" rx="18" ry="18"/>
<text text-anchor="middle" x="547" y="-14.3" font-family="Times,serif" font-size="14.00">5</text>
</g>
<!-- 3&#45;&gt;5 -->
<g id="edge9" class="edge">
<title>3&#45;&gt;5</title>
<path fill="none" stroke="black" d="M261.83,-49.23C294.7,-42.08 369.86,-26.73 434,-21 462.8,-18.43 495.93,-17.83 518.64,-17.78"/>
<polygon fill="black" stroke="black" points="518.88,-21.28 528.88,-17.8 518.89,-14.28 518.88,-21.28"/>
<text text-anchor="middle" x="395.5" y="-32.8" font-family="Times,serif" font-size="14.00">19/20</text>
</g>
<!-- 4&#45;&gt;3 -->
<g id="edge2" class="edge">
<title>4&#45;&gt;3</title>
<path fill="none" stroke="black" d="M433.98,-48.41C398.32,-49.28 315.46,-51.29 272.28,-52.34"/>
<polygon fill="black" stroke="black" points="272.12,-48.84 262.21,-52.58 272.29,-55.84 272.12,-48.84"/>
<text text-anchor="middle" x="339" y="-55.8" font-family="Times,serif" font-size="14.00">7/7</text>
</g>
<!-- 4&#45;&gt;5 -->
<g id="edge1" class="edge">
<title>4&#45;&gt;5</title>
<path fill="none" stroke="black" d="M469.63,-42.64C483.51,-38.16 503.56,-31.69 519.63,-26.5"/>
<polygon fill="black" stroke="black" points="521.07,-29.72 529.52,-23.32 518.93,-23.06 521.07,-29.72"/>
<text text-anchor="middle" x="499.5" y="-40.8" font-family="Times,serif" font-size="14.00">4/4</text>
</g>
</g>
</svg>
